<svg width="64" height="64" viewBox="0 0 64 64" fill="none" xmlns="http://www.w3.org/2000/svg">
<path d="M9.44851 20.48H54.6512C54.683 21.1948 54.6517 21.9254 54.6514 22.6418L54.6525 52.1046C54.6525 52.845 54.8161 53.574 54.3452 54.1776C53.7885 54.6429 51.3353 54.4328 50.5496 54.4322L12.5119 54.4308C11.8546 54.4333 11.1821 54.4689 10.526 54.4326C9.30711 54.365 9.44289 53.3129 9.44589 52.3854L9.44851 20.48Z" fill="white"/>
<path d="M9.43848 22.3431H54.66C54.6919 23.0201 54.6605 23.7121 54.6603 24.3906L54.6614 52.2954C54.6614 52.9966 54.825 53.687 54.3539 54.2588C53.797 54.6994 51.3428 54.5004 50.5568 54.4999L12.5031 54.4985C11.8456 54.5009 11.1728 54.5346 10.5165 54.5003C9.29701 54.4363 9.43285 53.4398 9.43585 52.5613L9.43848 22.3431ZM16.802 51.3729C17.3863 51.3699 17.9916 51.3348 18.5733 51.3729V37.6865C19.8718 37.6458 21.1845 37.6865 22.4848 37.6866L40.4051 37.6869C42.0934 37.6868 43.7873 37.6556 45.4749 37.6865V38.8594V51.6248H47.2664L47.2671 30.6703C47.2674 29.7823 47.3181 28.8553 47.2417 27.9713C47.1701 27.1435 46.5458 27.0336 45.838 27.0395L17.8081 27.0476C16.2555 27.1286 16.8019 29.6749 16.802 30.8809L16.8018 46.4998C16.8016 48.1223 16.7716 49.7511 16.802 51.3729ZM24.7841 40.4255C24.0395 40.5134 23.0983 41.7215 22.5644 42.2364C19.6415 45.0554 19.8738 44.4338 22.7001 47.0619C23.2206 47.546 23.733 48.1524 24.3294 48.535C25.0958 48.7595 25.9415 48.1374 25.4596 47.3155C25.1975 46.8685 23.2238 45.0561 22.7014 44.5928L24.5836 42.7636C24.8951 42.4628 25.3004 42.1485 25.5463 41.7945C25.9644 41.1923 25.4898 40.4015 24.7841 40.4255ZM39.1775 40.4255C38.903 40.4536 38.7255 40.5033 38.546 40.7324C37.9555 41.4861 38.8419 42.177 39.327 42.6616C39.9581 43.2921 40.6278 43.9019 41.1933 44.5928C40.5371 45.1785 38.9633 46.584 38.5395 47.183C37.9381 48.033 38.9549 48.8615 39.7883 48.535C40.0551 48.3234 40.2966 48.0656 40.5415 47.8288L41.9212 46.4678C42.4954 45.8934 43.9945 44.9015 43.3338 44.0923C42.7924 43.4294 42.1151 42.8203 41.5117 42.2114C41.0055 41.7006 39.9194 40.2444 39.1775 40.4255ZM30.4479 40.4255C30.2095 40.4488 30.0425 40.5019 29.8855 40.6921C29.6051 41.032 27.883 46.2501 27.7006 46.9505C28.0066 48.1409 29.5868 47.7511 30.6263 47.7513C31.6181 47.7515 32.62 47.7815 33.6104 47.7491C34.6866 47.6174 35.3283 44.3748 35.6796 43.3468C35.8916 42.7264 36.774 41.0774 36.0184 40.579C35.6028 40.305 31.2156 40.402 30.4479 40.4255Z" fill="black"/>
<path d="M18.73 33.2188C21.7034 33.2624 24.6846 33.2191 27.6587 33.2191L45.4749 33.2188C45.4746 33.5976 45.5286 35.6771 45.4564 35.8119L45.3478 35.8128H18.5732C18.5696 35.4486 18.5118 33.3775 18.625 33.2276L18.73 33.2188Z" fill="black"/>
<path d="M18.5732 28.8436H45.4749C45.5206 29.6772 45.4759 30.5395 45.4749 31.3757L27.5121 31.3754C24.5344 31.3754 21.5504 31.4167 18.5732 31.3757C18.576 30.5861 18.5096 29.6012 18.5732 28.8436Z" fill="black"/>
<path d="M33.3128 42.267H34.214C33.7556 43.5011 33.318 44.7387 32.8459 45.9684H30.7969H29.9616C30.0116 45.467 30.2265 44.974 30.387 44.4981L31.1571 42.267H33.3128Z" fill="black"/>
<path d="M44.8945 9.46243L46.995 9.46087C47.4085 9.45882 47.8312 9.4335 48.2432 9.46243C49.0103 9.9981 54.5917 15.751 54.6481 15.9407C54.7637 16.33 54.6572 19.9173 54.6636 20.5203C53.5997 20.5377 52.5325 20.5208 51.4683 20.5208L19.3551 20.5203H9.44206C9.4792 19.7073 9.44241 18.8837 9.44175 18.0693L9.44035 13.1315C9.44041 12.5563 9.2545 10.2096 9.68036 9.79892C10.1843 9.31294 10.8999 9.4613 11.5411 9.46137L44.8945 9.46243Z" fill="white"/>
<path d="M44.8909 9.46833L46.9914 9.46677C47.4049 9.46472 47.8276 9.4394 48.2396 9.46833C49.0068 10.004 54.5881 15.7569 54.6445 15.9466C54.7601 16.3359 54.6536 19.9232 54.66 20.5262C53.5961 20.5436 52.5289 20.5267 51.4647 20.5267L19.3515 20.5262H9.43848C9.47561 19.7132 9.43883 18.8896 9.43816 18.0752L9.43676 13.1374C9.43683 12.5622 9.25091 10.2155 9.67678 9.80482C10.1807 9.31883 10.8963 9.4672 11.5375 9.46727L44.8909 9.46833ZM29.9616 15.8794C30.9932 15.7067 31.0558 14.2396 29.9678 14.0957C29.6749 14.057 29.3501 14.0927 29.0537 14.0951L27.3215 14.0936C26.5141 14.1929 26.0631 15.2231 26.7881 15.7325C27.1581 15.9924 29.3791 15.8804 29.9616 15.8794ZM16.802 15.8794C17.7169 15.7147 18.0256 14.633 17.1766 14.1697C16.9069 14.0226 14.6025 14.0881 14.1354 14.0936C13.0673 14.3242 13.0824 15.7292 14.1486 15.871C14.5985 15.9309 16.3676 15.9207 16.802 15.8794ZM23.4183 15.8794C24.2524 15.6074 24.4289 14.553 23.5536 14.1879C23.1569 14.0222 21.2373 14.066 20.7124 14.0936C20.1644 14.2555 19.878 14.6875 20.043 15.2592C20.3 16.1497 22.571 15.9054 23.4183 15.8794Z" fill="black"/>
</svg>
